<mxfile host="app.diagrams.net" modified="2024-05-08T12:49:32.720Z" agent="Mozilla/5.0 (Windows NT 10.0; Win64; x64) AppleWebKit/537.36 (KHTML, like Gecko) Chrome/124.0.0.0 Safari/537.36" version="23.1.4" etag="l7vN6qymNJoDvQwcNBtQ" type="github">
  <diagram name="ページ1" id="eSCvyMRGmkFKXjYTV_oe">
    <mxGraphModel>
      <root>
        <mxCell id="0" />
        <mxCell id="1" parent="0" />
      </root>
    </mxGraphModel>
  </diagram>
</mxfile>
